<?xml version="1.0" encoding="utf-8"?>
<!-- Generator: Adobe Illustrator 16.0.0, SVG Export Plug-In . SVG Version: 6.00 Build 0)  -->
<!DOCTYPE svg PUBLIC "-//W3C//DTD SVG 1.1//EN" "http://www.w3.org/Graphics/SVG/1.1/DTD/svg11.dtd">
<svg version="1.1" id="Calque_1" xmlns="http://www.w3.org/2000/svg" xmlns:xlink="http://www.w3.org/1999/xlink" x="0px" y="0px"
	 width="355.155px" height="125.802px" viewBox="0 0 355.155 125.802" enable-background="new 0 0 355.155 125.802"
	 xml:space="preserve">
<ellipse transform="matrix(0.3831 0.9237 -0.9237 0.3831 94.6835 -22.3037)" fill="none" cx="64.04" cy="59.734" rx="14.495" ry="53.506"/>
<g>
	<path fill="#005087" d="M12.217,107.033v15.788h122.82V77.555C135.038,77.555,46.056,115.515,12.217,107.033z"/>
	<path fill="#005087" d="M58.487,46.345C31.19,57.665,11.549,72.836,14.615,80.23c3.067,7.396,27.681,4.213,54.978-7.107
		c27.296-11.319,46.938-26.491,43.872-33.886C110.397,31.843,85.783,35.024,58.487,46.345z M45.044,71.898
		c-5.292,2.335-10.803,1.466-12.307-1.942c-1.504-3.409,1.567-8.066,6.86-10.402c5.292-2.335,10.803-1.465,12.307,1.943
		C53.409,64.905,50.338,69.562,45.044,71.898z"/>
	<path fill="#005087" d="M64.846,38.627c28.348-11.756,54.8-17.708,70.191-16.685V0H12.217v68.246
		C24.247,58.468,42.917,47.723,64.846,38.627z"/>
	<path fill="#005087" d="M12.217,96.251v7.788c14.469,0.688,49.293-2.964,122.82-33.973V49.421
		c-12.003,9.907-30.931,20.861-53.228,30.108C53.826,91.134,27.69,97.084,12.217,96.251z"/>
</g>
<path fill="#A1CAC1" d="M0,92.606c0.808,1.628,9.412,16.138,54.153,2.505c0,0,41.94-10.214,80.884-37.536v-8.154
	c-12.003,9.907-30.931,20.861-53.228,30.108C43.663,95.35,8.949,100.66,0,92.606z"/>
<path fill="#4D4D4D" d="M166.2,105.358h-1.825v-1.006h-0.029c-0.589,0.718-1.423,1.178-2.429,1.178
	c-1.754,0-2.516-1.236-2.516-2.903v-4.673h1.927v3.954c0,0.906,0.014,2.127,1.25,2.127c1.394,0,1.696-1.509,1.696-2.458v-3.623
	h1.926V105.358z"/>
<path fill="#4D4D4D" d="M169.262,97.954h1.825v1.007h0.028c0.604-0.848,1.424-1.179,2.43-1.179c1.754,0,2.517,1.237,2.517,2.904
	v4.672h-1.927v-3.954c0-0.906-0.014-2.127-1.251-2.127c-1.395,0-1.695,1.509-1.695,2.458v3.623h-1.927V97.954z"/>
<path fill="#4D4D4D" d="M179.166,97.954h1.929v7.404h-1.929V97.954z M179.166,94.763h1.929v1.84h-1.929V94.763z"/>
<path fill="#4D4D4D" d="M183.379,97.954h2.069l1.842,5.392h0.027l1.783-5.392h1.926l-2.73,7.404h-2.172L183.379,97.954z"/>
<path fill="#4D4D4D" d="M194.636,100.93c0.086-0.992,0.633-1.74,1.711-1.74s1.508,0.805,1.566,1.74H194.636z M199.206,103.374
	c-0.719,0.403-1.523,0.748-2.457,0.748c-1.193,0-2.027-0.676-2.113-1.869h5.117c0-2.587-0.775-4.471-3.521-4.471
	c-2.301,0-3.436,1.769-3.436,3.911c0,2.43,1.422,3.838,3.865,3.838c1.035,0,1.842-0.201,2.545-0.589V103.374z"/>
<path fill="#4D4D4D" d="M201.384,97.954h1.711v1.683h0.029c0.086-0.69,0.877-1.855,2.025-1.855c0.188,0,0.389,0,0.59,0.058v1.941
	c-0.172-0.101-0.518-0.158-0.861-0.158c-1.568,0-1.568,1.954-1.568,3.018v2.717h-1.926V97.954z"/>
<path fill="#4D4D4D" d="M212.411,99.507c-0.592-0.202-1.023-0.316-1.727-0.316c-0.516,0-1.137,0.187-1.137,0.819
	c0,1.179,3.35,0.432,3.35,3.105c0,1.725-1.537,2.415-3.104,2.415c-0.734,0-1.48-0.129-2.186-0.316l0.115-1.581
	c0.604,0.302,1.236,0.489,1.896,0.489c0.49,0,1.266-0.187,1.266-0.906c0-1.451-3.35-0.459-3.35-3.133
	c0-1.596,1.395-2.301,2.904-2.301c0.906,0,1.494,0.145,2.098,0.274L212.411,99.507z"/>
<path fill="#4D4D4D" d="M215.515,97.954h1.926v7.404h-1.926V97.954z M215.515,94.763h1.926v1.84h-1.926V94.763z"/>
<path fill="#4D4D4D" d="M221.179,99.363h-1.424v-1.409h1.424v-1.48l1.926-0.618v2.098h1.711v1.409h-1.711v3.451
	c0,0.632,0.174,1.221,0.906,1.221c0.346,0,0.676-0.071,0.877-0.201l0.059,1.524c-0.404,0.115-0.85,0.172-1.424,0.172
	c-1.51,0-2.344-0.934-2.344-2.4V99.363z"/>
<path fill="#4D4D4D" d="M228.583,100.93c0.086-0.992,0.631-1.74,1.709-1.74s1.51,0.805,1.568,1.74H228.583z M229.157,96.948h1.193
	l1.971-2.099h-1.971L229.157,96.948z M233.153,103.374c-0.719,0.403-1.523,0.748-2.457,0.748c-1.193,0-2.027-0.676-2.113-1.869
	h5.115c0-2.587-0.773-4.471-3.521-4.471c-2.299,0-3.434,1.769-3.434,3.911c0,2.43,1.422,3.838,3.865,3.838
	c1.035,0,1.84-0.201,2.545-0.589V103.374z"/>
<path fill="#4D4D4D" d="M242.901,101.634c0-0.992,0.344-2.357,1.596-2.357c1.234,0,1.725,1.322,1.725,2.357
	c0,1.049-0.418,2.4-1.697,2.4C243.259,104.035,242.901,102.655,242.901,101.634z M246.292,105.358h1.869V94.576h-1.926v4.241h-0.029
	c-0.576-0.704-1.25-1.035-2.213-1.035c-2.271,0-3.105,1.812-3.105,3.853c0,2.027,0.834,3.896,3.105,3.896
	c0.906,0,1.695-0.287,2.271-1.006h0.027V105.358z"/>
<path fill="#4D4D4D" d="M252.589,100.93c0.086-0.992,0.633-1.74,1.711-1.74s1.51,0.805,1.566,1.74H252.589z M257.161,103.374
	c-0.719,0.403-1.523,0.748-2.459,0.748c-1.193,0-2.027-0.676-2.113-1.869h5.117c0-2.587-0.775-4.471-3.521-4.471
	c-2.299,0-3.436,1.769-3.436,3.911c0,2.43,1.424,3.838,3.867,3.838c1.035,0,1.84-0.201,2.545-0.589V103.374z"/>
<path fill="#4D4D4D" d="M266.001,99.363h-1.422v-1.409h1.422v-1.48l1.926-0.618v2.098h1.713v1.409h-1.713v3.451
	c0,0.632,0.174,1.221,0.906,1.221c0.346,0,0.676-0.071,0.879-0.201l0.055,1.524c-0.402,0.115-0.848,0.172-1.422,0.172
	c-1.51,0-2.344-0.934-2.344-2.4V99.363z"/>
<path fill="#4D4D4D" d="M273.405,100.93c0.086-0.992,0.633-1.74,1.709-1.74c1.078,0,1.512,0.805,1.568,1.74H273.405z
	 M277.978,103.374c-0.721,0.403-1.523,0.748-2.459,0.748c-1.193,0-2.027-0.676-2.113-1.869h5.117c0-2.587-0.775-4.471-3.521-4.471
	c-2.301,0-3.436,1.769-3.436,3.911c0,2.43,1.424,3.838,3.865,3.838c1.037,0,1.842-0.201,2.547-0.589V103.374z"/>
<path fill="#4D4D4D" d="M285.911,99.55c-0.344-0.158-0.719-0.272-1.309-0.272c-1.191,0-1.953,0.948-1.953,2.343
	c0,1.365,0.646,2.414,1.998,2.414c0.545,0,1.15-0.201,1.48-0.345l0.086,1.596c-0.561,0.173-1.137,0.244-1.926,0.244
	c-2.43,0-3.652-1.653-3.652-3.909c0-2.143,1.266-3.839,3.58-3.839c0.775,0,1.338,0.087,1.867,0.245L285.911,99.55z"/>
<path fill="#4D4D4D" d="M288.571,94.576h1.926v4.385h0.029c0.488-0.719,1.322-1.179,2.328-1.179c1.756,0,2.518,1.237,2.518,2.904
	v4.672h-1.926v-3.954c0-0.906-0.018-2.127-1.252-2.127c-1.395,0-1.697,1.509-1.697,2.458v3.623h-1.926V94.576z"/>
<path fill="#4D4D4D" d="M298.433,97.954h1.824v1.007h0.031c0.604-0.848,1.424-1.179,2.43-1.179c1.752,0,2.516,1.237,2.516,2.904
	v4.672h-1.928v-3.954c0-0.906-0.014-2.127-1.25-2.127c-1.395,0-1.695,1.509-1.695,2.458v3.623h-1.928V97.954z"/>
<path fill="#4D4D4D" d="M309.833,101.476c0-1.106,0.604-2.199,1.855-2.199c1.264,0,1.867,1.063,1.867,2.199
	c0,1.236-0.389,2.559-1.867,2.559C310.222,104.035,309.833,102.698,309.833,101.476z M307.819,101.707
	c0,2.127,1.424,3.823,3.869,3.823c2.457,0,3.879-1.696,3.879-3.823c0-2.444-1.68-3.925-3.879-3.925
	C309.501,97.781,307.819,99.262,307.819,101.707z"/>
<path fill="#4D4D4D" d="M318.2,94.576h1.926v10.782H318.2V94.576z"/>
<path fill="#4D4D4D" d="M324.771,101.476c0-1.106,0.602-2.199,1.854-2.199c1.264,0,1.867,1.063,1.867,2.199
	c0,1.236-0.387,2.559-1.867,2.559C325.157,104.035,324.771,102.698,324.771,101.476z M322.757,101.707
	c0,2.127,1.424,3.823,3.867,3.823c2.457,0,3.881-1.696,3.881-3.823c0-2.444-1.684-3.925-3.881-3.925
	C324.438,97.781,322.757,99.262,322.757,101.707z"/>
<path fill="#4D4D4D" d="M336.271,103.862c-1.109,0-1.641-1.236-1.641-2.242c0-1.136,0.418-2.343,1.727-2.343
	c1.121,0,1.609,1.034,1.609,2.299C337.966,102.813,337.478,103.862,336.271,103.862z M338.052,97.954v1.007h-0.027
	c-0.533-0.848-1.295-1.179-2.271-1.179c-2.215,0-3.135,2.056-3.135,3.839c0,1.983,0.834,3.737,3.02,3.737
	c1.076,0,1.939-0.546,2.299-1.18h0.029c0,1.28-0.1,2.875-2.229,2.875c-0.604,0-1.566-0.331-2.156-0.647l-0.156,1.639
	c0.92,0.388,1.795,0.503,2.557,0.503c3.107,0,3.91-1.898,3.91-3.91v-6.686H338.052z"/>
<path fill="#4D4D4D" d="M342.997,97.954h1.926v7.404h-1.926V97.954z M342.997,94.763h1.926v1.84h-1.926V94.763z"/>
<path fill="#4D4D4D" d="M349.394,100.93c0.086-0.992,0.633-1.74,1.711-1.74c1.08,0,1.51,0.805,1.568,1.74H349.394z M353.966,103.374
	c-0.719,0.403-1.523,0.748-2.457,0.748c-1.195,0-2.029-0.676-2.115-1.869h5.119c0-2.587-0.777-4.471-3.523-4.471
	c-2.299,0-3.436,1.769-3.436,3.911c0,2.43,1.424,3.838,3.867,3.838c1.035,0,1.842-0.201,2.545-0.589V103.374z"/>
<path fill="#4D4D4D" d="M162.363,114.158h-2.875v-1.581h7.762v1.581h-2.875v8.453h-2.012V114.158z"/>
<path fill="#4D4D4D" d="M168.158,115.208h1.711v1.682h0.029c0.086-0.69,0.877-1.854,2.027-1.854c0.188,0,0.387,0,0.59,0.057v1.941
	c-0.174-0.1-0.518-0.158-0.863-0.158c-1.566,0-1.566,1.955-1.566,3.019v2.717h-1.928V115.208z"/>
<path fill="#4D4D4D" d="M176.068,118.73c0-1.107,0.604-2.2,1.854-2.2c1.266,0,1.869,1.064,1.869,2.2
	c0,1.236-0.389,2.559-1.869,2.559C176.457,121.289,176.068,119.952,176.068,118.73z M174.054,118.959
	c0,2.128,1.424,3.824,3.867,3.824c2.459,0,3.881-1.696,3.881-3.824c0-2.444-1.68-3.924-3.881-3.924
	C175.736,115.035,174.054,116.516,174.054,118.959z"/>
<path fill="#4D4D4D" d="M187.466,120.613h0.029l1.783-5.405h1.955l-2.773,7.346c-0.619,1.639-1.064,3.249-3.078,3.249
	c-0.458,0-0.919-0.071-1.365-0.201l0.129-1.423c0.244,0.086,0.518,0.129,0.992,0.129c0.775,0,1.25-0.532,1.25-1.322l-2.83-7.777
	h2.126L187.466,120.613z"/>
<path fill="#4D4D4D" d="M194.827,118.183c0.086-0.992,0.633-1.739,1.711-1.739s1.51,0.806,1.566,1.739H194.827z M199.397,120.627
	c-0.717,0.403-1.523,0.747-2.457,0.747c-1.193,0-2.027-0.676-2.113-1.869h5.117c0-2.587-0.775-4.471-3.521-4.471
	c-2.301,0-3.436,1.769-3.436,3.91c0,2.429,1.424,3.838,3.867,3.838c1.035,0,1.84-0.201,2.543-0.589V120.627z"/>
<path fill="#4D4D4D" d="M206.933,116.76c-0.59-0.201-1.021-0.316-1.727-0.316c-0.518,0-1.135,0.187-1.135,0.82
	c0,1.179,3.35,0.431,3.35,3.104c0,1.725-1.539,2.415-3.105,2.415c-0.732,0-1.48-0.129-2.186-0.316l0.115-1.582
	c0.604,0.302,1.236,0.489,1.896,0.489c0.49,0,1.266-0.187,1.266-0.905c0-1.452-3.35-0.46-3.35-3.134c0-1.596,1.395-2.3,2.904-2.3
	c0.906,0,1.496,0.144,2.098,0.273L206.933,116.76z"/>
<g>
	<path fill="#4D4D4D" d="M201.571,64.568c0,3.725,0,7.545,0.43,11.46h-6.545v-8.69h-0.215c-2.252,4.393-6.33,9.837-17.702,9.837
		c-13.518,0-18.667-8.023-18.667-18.719V27.322h6.759v29.606c0,9.169,3.647,15.09,12.981,15.09c11.253,0,16.201-9.474,16.201-11.703
		V27.322h6.758V64.568z"/>
	<g>
		<path fill="#4D4D4D" d="M217.491,27.322h-8.502v5.157h8.502v28.46c0,8.882,0.428,16.236,12.443,16.236
			c3.326,0,6.65-0.764,8.26-1.337l-0.428-4.966c-1.932,0.668-3.648,1.146-6.223,1.146c-5.471,0-7.295-3.629-7.295-8.022V32.479
			h12.443v-5.157h-12.443V13.159h-6.758V27.322z"/>
		<path fill="#4D4D4D" d="M272.298,70.872c-1.932,0.668-3.648,1.146-6.223,1.146c-5.471,0-7.295-3.629-7.295-8.022V32.479h12.445
			v-5.157H258.78V13.159h-6.758v14.164h-8.502v5.157h8.502v28.46c0,8.882,0.428,16.236,12.445,16.236c3.324,0,6.65-0.764,8.26-1.337
			L272.298,70.872z"/>
	</g>
</g>
<line fill="#4D4D4D" x1="159.101" y1="86.865" x2="355.155" y2="86.865"/>
<rect x="159.101" y="86.191" fill="#4D4D4D" width="196.054" height="1.348"/>
</svg>
