<?xml version="1.0" encoding="utf-8"?>
<!-- Generator: Adobe Illustrator 16.0.0, SVG Export Plug-In . SVG Version: 6.00 Build 0)  -->
<!DOCTYPE svg PUBLIC "-//W3C//DTD SVG 1.1//EN" "http://www.w3.org/Graphics/SVG/1.1/DTD/svg11.dtd">
<svg version="1.1" id="Calque_1" xmlns="http://www.w3.org/2000/svg" xmlns:xlink="http://www.w3.org/1999/xlink" x="0px" y="0px"
	 width="400.514px" height="126px" viewBox="0 0 400.514 126" enable-background="new 0 0 400.514 126" xml:space="preserve">
<g>
	<path fill="#FFFFFF" d="M124.939,77.822c0,0.61-0.019,1.129-0.055,1.557c-0.037,0.427-0.092,0.793-0.165,1.099
		s-0.171,0.567-0.293,0.787c-0.123,0.22-0.317,0.47-0.586,0.751c-0.269,0.281-0.787,0.641-1.557,1.08
		c-0.769,0.439-1.709,0.86-2.819,1.264c-1.111,0.402-2.381,0.738-3.809,1.007c-1.429,0.269-2.973,0.403-4.633,0.403
		c-3.247,0-6.177-0.5-8.789-1.501c-2.613-1.001-4.834-2.496-6.665-4.486c-1.831-1.989-3.235-4.473-4.211-7.452
		c-0.977-2.979-1.465-6.445-1.465-10.4c0-4.028,0.537-7.604,1.611-10.73c1.074-3.125,2.576-5.75,4.504-7.874
		c1.928-2.124,4.242-3.735,6.939-4.834s5.67-1.648,8.917-1.648c1.318,0,2.587,0.11,3.809,0.33c1.221,0.22,2.35,0.507,3.387,0.86
		c1.038,0.354,1.972,0.764,2.802,1.227c0.83,0.464,1.41,0.861,1.739,1.19c0.33,0.33,0.555,0.604,0.678,0.824
		c0.122,0.22,0.22,0.5,0.293,0.842c0.073,0.342,0.128,0.745,0.165,1.208c0.036,0.464,0.055,1.038,0.055,1.721
		c0,0.732-0.024,1.355-0.073,1.868c-0.049,0.513-0.134,0.928-0.256,1.245c-0.123,0.317-0.269,0.549-0.439,0.696
		c-0.171,0.146-0.366,0.22-0.586,0.22c-0.366,0-0.83-0.213-1.392-0.641c-0.562-0.427-1.288-0.903-2.179-1.428
		s-1.953-1.001-3.186-1.429c-1.233-0.427-2.705-0.641-4.413-0.641c-1.88,0-3.559,0.385-5.035,1.153
		c-1.478,0.77-2.735,1.868-3.772,3.296c-1.038,1.429-1.825,3.156-2.362,5.182c-0.537,2.027-0.806,4.309-0.806,6.848
		c0,2.783,0.287,5.194,0.861,7.232c0.573,2.039,1.392,3.717,2.453,5.036c1.063,1.318,2.344,2.301,3.846,2.948
		c1.501,0.647,3.191,0.971,5.072,0.971c1.708,0,3.186-0.201,4.431-0.604c1.245-0.402,2.313-0.848,3.204-1.336
		c0.891-0.488,1.624-0.928,2.197-1.318c0.574-0.39,1.02-0.586,1.337-0.586c0.244,0,0.439,0.049,0.586,0.146
		c0.146,0.098,0.269,0.293,0.366,0.586c0.097,0.293,0.17,0.702,0.22,1.227C124.915,76.242,124.939,76.943,124.939,77.822z"/>
	<path fill="#FFFFFF" d="M159.144,83.865c0,0.342-0.123,0.61-0.366,0.806c-0.244,0.196-0.629,0.335-1.153,0.421
		c-0.525,0.085-1.3,0.128-2.326,0.128c-1.099,0-1.898-0.043-2.399-0.128c-0.5-0.086-0.854-0.226-1.062-0.421
		c-0.208-0.195-0.312-0.463-0.312-0.806v-2.6c-1.343,1.441-2.875,2.563-4.596,3.369c-1.722,0.806-3.632,1.208-5.731,1.208
		c-1.734,0-3.327-0.226-4.779-0.677c-1.453-0.452-2.71-1.123-3.771-2.015c-1.063-0.891-1.886-1.996-2.472-3.314
		s-0.879-2.856-0.879-4.614c0-1.904,0.372-3.558,1.117-4.962c0.745-1.403,1.855-2.563,3.333-3.479
		c1.477-0.916,3.314-1.593,5.511-2.033s4.748-0.659,7.654-0.659h3.186v-1.978c0-1.025-0.104-1.922-0.311-2.692
		c-0.208-0.769-0.55-1.41-1.025-1.922c-0.477-0.513-1.111-0.891-1.904-1.135c-0.794-0.244-1.776-0.366-2.948-0.366
		c-1.538,0-2.911,0.171-4.12,0.513c-1.208,0.342-2.276,0.72-3.204,1.135c-0.928,0.416-1.703,0.793-2.325,1.135
		c-0.623,0.342-1.13,0.513-1.52,0.513c-0.269,0-0.507-0.085-0.714-0.256c-0.208-0.17-0.378-0.415-0.513-0.732
		c-0.134-0.317-0.238-0.708-0.311-1.172c-0.073-0.463-0.11-0.976-0.11-1.538c0-0.756,0.061-1.355,0.183-1.794
		c0.122-0.439,0.354-0.836,0.696-1.19c0.342-0.354,0.939-0.744,1.794-1.172c0.854-0.427,1.855-0.824,3.003-1.19
		c1.147-0.366,2.399-0.665,3.753-0.897c1.355-0.232,2.752-0.348,4.193-0.348c2.563,0,4.754,0.25,6.573,0.75
		c1.819,0.501,3.314,1.27,4.486,2.308s2.026,2.375,2.563,4.01c0.537,1.636,0.806,3.577,0.806,5.823V83.865z M150.098,69.875h-3.516
		c-1.489,0-2.759,0.11-3.809,0.33c-1.05,0.22-1.904,0.549-2.563,0.989s-1.142,0.97-1.447,1.593
		c-0.305,0.622-0.458,1.336-0.458,2.142c0,1.368,0.433,2.441,1.3,3.223c0.866,0.782,2.069,1.172,3.607,1.172
		c1.294,0,2.484-0.33,3.571-0.989c1.086-0.659,2.191-1.624,3.314-2.893V69.875z"/>
	<path fill="#FFFFFF" d="M189.319,54.128c0,0.879-0.024,1.599-0.073,2.161c-0.049,0.562-0.123,1.001-0.22,1.318
		c-0.098,0.317-0.226,0.537-0.384,0.659c-0.159,0.123-0.361,0.183-0.604,0.183c-0.196,0-0.416-0.042-0.659-0.128
		c-0.244-0.085-0.519-0.177-0.824-0.274c-0.305-0.097-0.641-0.189-1.007-0.274s-0.769-0.128-1.208-0.128
		c-0.513,0-1.025,0.104-1.538,0.311c-0.513,0.208-1.043,0.531-1.593,0.971c-0.549,0.439-1.123,1.025-1.721,1.758
		c-0.599,0.732-1.24,1.636-1.923,2.71v20.361c0,0.244-0.073,0.458-0.22,0.641c-0.146,0.184-0.397,0.336-0.751,0.458
		c-0.354,0.123-0.824,0.213-1.41,0.274s-1.331,0.092-2.234,0.092c-0.903,0-1.648-0.031-2.234-0.092s-1.056-0.152-1.41-0.274
		c-0.354-0.122-0.604-0.274-0.751-0.458c-0.146-0.183-0.22-0.396-0.22-0.641V51.089c0-0.244,0.061-0.458,0.183-0.641
		c0.122-0.184,0.342-0.335,0.659-0.458c0.317-0.122,0.726-0.213,1.227-0.274c0.5-0.061,1.129-0.092,1.886-0.092
		c0.781,0,1.428,0.031,1.941,0.092s0.909,0.152,1.19,0.274c0.281,0.123,0.482,0.274,0.604,0.458
		c0.122,0.183,0.183,0.397,0.183,0.641v4.065c0.854-1.221,1.66-2.228,2.417-3.021c0.756-0.793,1.477-1.422,2.161-1.886
		c0.683-0.463,1.367-0.788,2.051-0.97c0.683-0.184,1.367-0.275,2.051-0.275c0.317,0,0.659,0.018,1.025,0.055
		c0.366,0.036,0.745,0.098,1.135,0.183c0.39,0.086,0.732,0.184,1.025,0.293c0.293,0.11,0.506,0.226,0.641,0.348
		c0.134,0.123,0.231,0.256,0.293,0.403c0.061,0.146,0.115,0.348,0.165,0.604c0.049,0.256,0.085,0.641,0.11,1.153
		C189.307,52.554,189.319,53.25,189.319,54.128z"/>
	<path fill="#FFFFFF" d="M227.881,66.982c0,2.906-0.317,5.518-0.952,7.837c-0.635,2.32-1.551,4.297-2.747,5.933
		c-1.196,1.636-2.667,2.893-4.413,3.772c-1.746,0.879-3.73,1.318-5.951,1.318c-1.099,0-2.124-0.104-3.076-0.311
		c-0.952-0.208-1.862-0.543-2.729-1.007c-0.867-0.463-1.721-1.049-2.563-1.758c-0.842-0.708-1.703-1.562-2.582-2.563v3.552
		c0,0.269-0.067,0.494-0.202,0.678c-0.134,0.183-0.354,0.335-0.659,0.458s-0.714,0.207-1.227,0.256
		c-0.513,0.049-1.135,0.073-1.868,0.073c-0.757,0-1.386-0.024-1.886-0.073c-0.5-0.049-0.903-0.134-1.208-0.256
		c-0.306-0.122-0.519-0.275-0.641-0.458c-0.123-0.184-0.183-0.409-0.183-0.678V35.598c0-0.244,0.073-0.463,0.22-0.659
		c0.146-0.195,0.396-0.36,0.751-0.495c0.354-0.134,0.824-0.238,1.41-0.311s1.331-0.11,2.234-0.11c0.903,0,1.648,0.037,2.234,0.11
		s1.056,0.177,1.41,0.311c0.354,0.135,0.604,0.299,0.751,0.495c0.146,0.196,0.22,0.416,0.22,0.659v18.054
		c0.83-0.83,1.66-1.538,2.49-2.124c0.83-0.586,1.66-1.068,2.49-1.446c0.83-0.378,1.685-0.653,2.563-0.824
		c0.879-0.17,1.807-0.256,2.783-0.256c2.417,0,4.468,0.482,6.152,1.447s3.058,2.265,4.12,3.9c1.062,1.636,1.836,3.546,2.325,5.731
		C227.637,62.265,227.881,64.565,227.881,66.982z M218.323,67.642c0-1.392-0.104-2.734-0.311-4.028
		c-0.208-1.294-0.568-2.441-1.081-3.442c-0.513-1.001-1.178-1.8-1.996-2.398c-0.818-0.598-1.85-0.897-3.095-0.897
		c-0.61,0-1.208,0.086-1.794,0.256c-0.586,0.171-1.19,0.464-1.813,0.879c-0.622,0.416-1.263,0.952-1.922,1.611
		s-1.355,1.478-2.087,2.454v10.84c1.294,1.661,2.533,2.924,3.717,3.79c1.184,0.867,2.423,1.3,3.717,1.3
		c1.196,0,2.209-0.305,3.04-0.916c0.83-0.61,1.52-1.404,2.069-2.38c0.549-0.976,0.946-2.087,1.19-3.333
		C218.201,70.132,218.323,68.887,218.323,67.642z"/>
	<path fill="#FFFFFF" d="M268.274,67.092c0,2.783-0.366,5.323-1.099,7.617c-0.732,2.295-1.844,4.272-3.333,5.933
		c-1.489,1.661-3.356,2.942-5.603,3.845s-4.87,1.355-7.874,1.355c-2.905,0-5.432-0.403-7.58-1.208s-3.931-1.978-5.347-3.516
		c-1.416-1.538-2.466-3.43-3.149-5.676c-0.684-2.246-1.025-4.81-1.025-7.69c0-2.783,0.372-5.329,1.117-7.635
		c0.744-2.308,1.861-4.285,3.351-5.933c1.489-1.648,3.351-2.924,5.585-3.827c2.233-0.903,4.852-1.355,7.855-1.355
		c2.93,0,5.468,0.397,7.617,1.19c2.147,0.794,3.924,1.959,5.328,3.498c1.403,1.538,2.447,3.43,3.131,5.676
		C267.933,61.612,268.274,64.187,268.274,67.092z M258.79,67.458c0-1.611-0.129-3.094-0.385-4.45
		c-0.257-1.354-0.69-2.532-1.301-3.534c-0.61-1.001-1.422-1.782-2.435-2.344c-1.014-0.562-2.289-0.842-3.827-0.842
		c-1.367,0-2.563,0.25-3.589,0.751s-1.868,1.233-2.526,2.197c-0.66,0.964-1.154,2.124-1.483,3.479
		c-0.33,1.355-0.495,2.899-0.495,4.633c0,1.611,0.135,3.095,0.403,4.449c0.269,1.355,0.701,2.533,1.3,3.534
		c0.599,1.001,1.41,1.776,2.436,2.325c1.025,0.55,2.295,0.824,3.809,0.824c1.392,0,2.6-0.25,3.625-0.751
		c1.025-0.5,1.868-1.227,2.527-2.179s1.147-2.105,1.465-3.461C258.631,70.736,258.79,69.192,258.79,67.458z"/>
	<path fill="#FFFFFF" d="M306.763,83.755c0,0.244-0.073,0.458-0.22,0.641c-0.146,0.184-0.391,0.336-0.732,0.458
		c-0.342,0.123-0.812,0.213-1.41,0.274s-1.336,0.092-2.215,0.092c-0.904,0-1.654-0.031-2.253-0.092s-1.068-0.152-1.409-0.274
		c-0.343-0.122-0.586-0.274-0.732-0.458c-0.146-0.183-0.221-0.396-0.221-0.641v-18.64c0-1.587-0.115-2.832-0.348-3.735
		c-0.232-0.903-0.567-1.678-1.007-2.326c-0.439-0.646-1.007-1.147-1.703-1.501c-0.695-0.354-1.508-0.531-2.435-0.531
		c-1.172,0-2.356,0.427-3.553,1.282c-1.196,0.855-2.441,2.1-3.735,3.735v21.716c0,0.244-0.073,0.458-0.22,0.641
		c-0.146,0.184-0.397,0.336-0.751,0.458c-0.354,0.123-0.823,0.213-1.409,0.274s-1.331,0.092-2.234,0.092s-1.648-0.031-2.234-0.092
		s-1.056-0.152-1.409-0.274c-0.354-0.122-0.604-0.274-0.751-0.458c-0.146-0.183-0.22-0.396-0.22-0.641V51.089
		c0-0.244,0.061-0.458,0.183-0.641c0.122-0.184,0.342-0.335,0.66-0.458c0.316-0.122,0.726-0.213,1.227-0.274
		c0.5-0.061,1.129-0.092,1.886-0.092c0.781,0,1.429,0.031,1.94,0.092c0.514,0.061,0.91,0.152,1.19,0.274
		c0.28,0.123,0.482,0.274,0.604,0.458c0.122,0.183,0.184,0.397,0.184,0.641v3.772c1.806-1.953,3.644-3.418,5.511-4.395
		c1.868-0.976,3.814-1.465,5.841-1.465c2.222,0,4.096,0.366,5.622,1.099c1.525,0.732,2.759,1.728,3.698,2.985
		s1.617,2.728,2.033,4.413c0.414,1.685,0.622,3.711,0.622,6.079V83.755z"/>
	<path fill="#FFFFFF" d="M355.726,60.61c0,4.346-0.567,8.063-1.703,11.151c-1.135,3.088-2.765,5.609-4.889,7.562
		c-2.124,1.954-4.706,3.387-7.745,4.303C338.349,84.542,334.729,85,330.53,85h-11.316c-0.805,0-1.482-0.238-2.032-0.714
		c-0.549-0.477-0.823-1.251-0.823-2.326V40.652c0-1.074,0.274-1.849,0.823-2.326c0.55-0.476,1.228-0.714,2.032-0.714h12.158
		c4.224,0,7.807,0.494,10.749,1.483c2.941,0.988,5.42,2.453,7.434,4.395c2.015,1.94,3.546,4.339,4.597,7.196
		C355.2,53.542,355.726,56.851,355.726,60.61z M345.765,60.94c0-2.246-0.263-4.333-0.787-6.262
		c-0.525-1.928-1.368-3.601-2.527-5.017c-1.159-1.416-2.649-2.521-4.468-3.314s-4.205-1.19-7.159-1.19h-4.871v32.227h5.018
		c2.637,0,4.858-0.342,6.665-1.025c1.807-0.683,3.314-1.715,4.522-3.095c1.209-1.379,2.111-3.094,2.71-5.145
		S345.765,63.674,345.765,60.94z"/>
	<path fill="#FFFFFF" d="M397.95,70.791c0,1.685-0.232,3.21-0.696,4.578c-0.464,1.368-1.104,2.576-1.922,3.625
		c-0.818,1.05-1.795,1.954-2.93,2.71c-1.136,0.757-2.387,1.379-3.754,1.868c-1.367,0.489-2.826,0.849-4.376,1.081
		C382.722,84.884,380.994,85,379.09,85h-12.598c-0.805,0-1.482-0.238-2.032-0.714c-0.549-0.477-0.823-1.251-0.823-2.326V40.652
		c0-1.074,0.274-1.849,0.823-2.326c0.55-0.476,1.228-0.714,2.032-0.714h11.902c2.905,0,5.365,0.244,7.379,0.732
		c2.015,0.489,3.711,1.227,5.091,2.216c1.379,0.988,2.435,2.24,3.167,3.753c0.732,1.514,1.1,3.296,1.1,5.347
		c0,1.148-0.146,2.228-0.439,3.241c-0.293,1.014-0.721,1.936-1.282,2.765c-0.562,0.83-1.251,1.563-2.069,2.197
		c-0.818,0.635-1.752,1.148-2.801,1.538c1.342,0.244,2.581,0.672,3.717,1.282c1.135,0.61,2.124,1.398,2.966,2.362
		c0.843,0.964,1.508,2.093,1.996,3.387C397.706,67.728,397.95,69.18,397.95,70.791z M385.499,50.833
		c0-0.952-0.146-1.807-0.439-2.563c-0.293-0.756-0.732-1.385-1.318-1.886c-0.586-0.5-1.324-0.884-2.216-1.153
		c-0.892-0.269-2.081-0.403-3.57-0.403h-4.871v12.305h5.384c1.392,0,2.502-0.165,3.333-0.495c0.829-0.329,1.52-0.781,2.068-1.354
		c0.55-0.574,0.958-1.245,1.227-2.015C385.364,52.499,385.499,51.688,385.499,50.833z M387.953,71.121
		c0-1.099-0.184-2.081-0.55-2.948s-0.903-1.593-1.611-2.179s-1.611-1.038-2.71-1.355c-1.099-0.317-2.527-0.476-4.285-0.476h-5.713
		v13.477h6.959c1.342,0,2.472-0.14,3.387-0.421c0.916-0.28,1.709-0.695,2.381-1.245c0.671-0.549,1.195-1.232,1.574-2.051
		C387.764,73.104,387.953,72.17,387.953,71.121z"/>
</g>
<circle fill="#FFFFFF" cx="72" cy="18" r="18"/>
<circle fill="#FFFFFF" cx="72" cy="108" r="18"/>
<circle fill="#FFFFFF" cx="18" cy="63" r="18"/>
<polyline fill="none" stroke="#FFFFFF" stroke-width="8" stroke-miterlimit="10" points="72,18 18,63 72,108 "/>
<g>
</g>
<g>
</g>
<g>
</g>
<g>
</g>
<g>
</g>
<g>
</g>
</svg>
