<?xml version="1.0" encoding="utf-8"?>
<!-- Generator: Adobe Illustrator 16.0.0, SVG Export Plug-In . SVG Version: 6.00 Build 0)  -->
<!DOCTYPE svg PUBLIC "-//W3C//DTD SVG 1.1//EN" "http://www.w3.org/Graphics/SVG/1.1/DTD/svg11.dtd">
<svg version="1.1" id="Calque_1" xmlns="http://www.w3.org/2000/svg" xmlns:xlink="http://www.w3.org/1999/xlink" x="0px" y="0px"
	 width="440.414px" height="153px" viewBox="0 0 440.414 153" enable-background="new 0 0 440.414 153" xml:space="preserve">
<g>
	<path fill="#3C66B0" d="M146.469,92.344c0,0.651-0.02,1.205-0.059,1.66c-0.039,0.456-0.098,0.847-0.176,1.172
		c-0.078,0.326-0.183,0.605-0.313,0.84c-0.131,0.234-0.339,0.502-0.625,0.801c-0.287,0.3-0.84,0.684-1.66,1.152
		s-1.823,0.918-3.008,1.348c-1.186,0.43-2.539,0.787-4.063,1.074c-1.523,0.286-3.171,0.43-4.941,0.43
		c-3.464,0-6.589-0.534-9.375-1.602c-2.787-1.067-5.156-2.662-7.109-4.785c-1.953-2.122-3.451-4.771-4.492-7.949
		c-1.042-3.177-1.563-6.875-1.563-11.094c0-4.297,0.572-8.111,1.719-11.445c1.146-3.333,2.747-6.133,4.805-8.398
		c2.057-2.266,4.524-3.984,7.402-5.156c2.877-1.172,6.048-1.758,9.512-1.758c1.406,0,2.76,0.117,4.063,0.352
		c1.302,0.234,2.506,0.541,3.613,0.918c1.106,0.378,2.103,0.814,2.988,1.309c0.885,0.495,1.504,0.918,1.855,1.27
		s0.592,0.645,0.723,0.879c0.13,0.234,0.234,0.534,0.313,0.898c0.078,0.365,0.137,0.795,0.176,1.289
		c0.039,0.495,0.059,1.107,0.059,1.836c0,0.781-0.026,1.445-0.078,1.992c-0.053,0.547-0.144,0.99-0.273,1.328
		c-0.131,0.339-0.287,0.586-0.469,0.742c-0.183,0.156-0.391,0.234-0.625,0.234c-0.391,0-0.886-0.228-1.484-0.684
		c-0.6-0.455-1.374-0.963-2.324-1.523c-0.951-0.56-2.084-1.067-3.398-1.523c-1.315-0.455-2.885-0.684-4.707-0.684
		c-2.006,0-3.796,0.41-5.371,1.23c-1.576,0.82-2.917,1.992-4.023,3.516c-1.107,1.523-1.947,3.366-2.52,5.527
		c-0.573,2.162-0.859,4.597-0.859,7.305c0,2.969,0.306,5.541,0.918,7.715c0.611,2.175,1.484,3.965,2.617,5.371
		s2.5,2.455,4.102,3.145c1.602,0.69,3.404,1.035,5.41,1.035c1.822,0,3.398-0.215,4.727-0.645s2.467-0.904,3.418-1.426
		c0.95-0.521,1.731-0.989,2.344-1.406c0.611-0.416,1.087-0.625,1.426-0.625c0.26,0,0.469,0.053,0.625,0.156
		c0.156,0.104,0.286,0.313,0.391,0.625c0.104,0.313,0.182,0.749,0.234,1.309C146.442,90.658,146.469,91.406,146.469,92.344z"/>
	<path fill="#3C66B0" d="M182.953,98.789c0,0.365-0.131,0.651-0.391,0.859c-0.261,0.209-0.671,0.357-1.23,0.449
		c-0.561,0.091-1.387,0.137-2.48,0.137c-1.172,0-2.025-0.046-2.559-0.137c-0.534-0.092-0.912-0.24-1.133-0.449
		c-0.222-0.208-0.332-0.494-0.332-0.859v-2.773c-1.433,1.537-3.066,2.734-4.902,3.594s-3.874,1.289-6.113,1.289
		c-1.85,0-3.549-0.241-5.098-0.723c-1.55-0.481-2.891-1.197-4.023-2.148c-1.133-0.95-2.012-2.129-2.637-3.535
		s-0.938-3.047-0.938-4.922c0-2.031,0.396-3.795,1.191-5.293c0.794-1.497,1.979-2.734,3.555-3.711
		c1.575-0.977,3.535-1.699,5.879-2.168s5.064-0.703,8.164-0.703h3.398v-2.109c0-1.094-0.111-2.051-0.332-2.871
		c-0.222-0.82-0.586-1.504-1.094-2.051s-1.186-0.95-2.031-1.211c-0.847-0.26-1.895-0.391-3.145-0.391
		c-1.641,0-3.105,0.183-4.395,0.547c-1.289,0.365-2.429,0.769-3.418,1.211c-0.99,0.443-1.816,0.847-2.48,1.211
		c-0.664,0.365-1.205,0.547-1.621,0.547c-0.287,0-0.541-0.091-0.762-0.273c-0.222-0.182-0.404-0.442-0.547-0.781
		c-0.144-0.338-0.254-0.755-0.332-1.25c-0.078-0.494-0.117-1.041-0.117-1.641c0-0.807,0.064-1.445,0.195-1.914
		c0.13-0.469,0.377-0.892,0.742-1.27c0.364-0.377,1.002-0.794,1.914-1.25c0.911-0.455,1.979-0.879,3.203-1.27
		c1.224-0.391,2.559-0.709,4.004-0.957c1.445-0.247,2.936-0.371,4.473-0.371c2.734,0,5.071,0.268,7.012,0.801
		c1.939,0.534,3.535,1.354,4.785,2.461c1.25,1.107,2.161,2.533,2.734,4.277c0.572,1.745,0.859,3.815,0.859,6.211V98.789z
		 M173.305,83.867h-3.75c-1.589,0-2.943,0.117-4.063,0.352c-1.12,0.234-2.031,0.586-2.734,1.055s-1.218,1.035-1.543,1.699
		c-0.326,0.664-0.488,1.426-0.488,2.285c0,1.459,0.462,2.604,1.387,3.438c0.924,0.834,2.207,1.25,3.848,1.25
		c1.38,0,2.649-0.352,3.809-1.055c1.158-0.703,2.337-1.731,3.535-3.086V83.867z"/>
	<path fill="#3C66B0" d="M215.141,67.07c0,0.938-0.026,1.706-0.078,2.305c-0.053,0.6-0.131,1.068-0.234,1.406
		c-0.104,0.339-0.241,0.573-0.41,0.703c-0.17,0.131-0.385,0.195-0.645,0.195c-0.209,0-0.443-0.045-0.703-0.137
		c-0.261-0.091-0.554-0.188-0.879-0.293c-0.326-0.104-0.684-0.201-1.074-0.293c-0.391-0.091-0.82-0.137-1.289-0.137
		c-0.547,0-1.094,0.111-1.641,0.332c-0.547,0.222-1.113,0.566-1.699,1.035s-1.198,1.094-1.836,1.875
		c-0.639,0.781-1.322,1.745-2.051,2.891v21.719c0,0.261-0.078,0.488-0.234,0.684s-0.424,0.358-0.801,0.488
		c-0.378,0.131-0.879,0.228-1.504,0.293c-0.625,0.064-1.42,0.098-2.383,0.098c-0.964,0-1.758-0.033-2.383-0.098
		c-0.625-0.065-1.127-0.162-1.504-0.293c-0.378-0.13-0.645-0.293-0.801-0.488s-0.234-0.423-0.234-0.684V63.828
		c0-0.26,0.064-0.488,0.195-0.684c0.13-0.195,0.364-0.357,0.703-0.488c0.338-0.13,0.774-0.228,1.309-0.293
		c0.533-0.064,1.204-0.098,2.012-0.098c0.833,0,1.523,0.033,2.07,0.098c0.547,0.065,0.97,0.163,1.27,0.293
		c0.299,0.131,0.514,0.293,0.645,0.488c0.13,0.195,0.195,0.424,0.195,0.684v4.336c0.911-1.302,1.771-2.376,2.578-3.223
		c0.807-0.846,1.575-1.517,2.305-2.012c0.729-0.494,1.458-0.84,2.188-1.035c0.729-0.195,1.458-0.293,2.188-0.293
		c0.338,0,0.703,0.02,1.094,0.059s0.794,0.104,1.211,0.195c0.416,0.092,0.781,0.195,1.094,0.313s0.54,0.241,0.684,0.371
		c0.143,0.131,0.247,0.273,0.313,0.43c0.064,0.156,0.123,0.371,0.176,0.645c0.052,0.273,0.091,0.684,0.117,1.23
		C215.127,65.391,215.141,66.133,215.141,67.07z"/>
	<path fill="#3C66B0" d="M256.273,80.781c0,3.1-0.339,5.886-1.016,8.359c-0.678,2.475-1.654,4.584-2.93,6.328
		c-1.276,1.745-2.846,3.086-4.707,4.023c-1.862,0.938-3.979,1.406-6.348,1.406c-1.172,0-2.266-0.111-3.281-0.332
		c-1.016-0.222-1.986-0.579-2.91-1.074c-0.925-0.494-1.836-1.119-2.734-1.875c-0.898-0.755-1.816-1.666-2.754-2.734v3.789
		c0,0.287-0.072,0.527-0.215,0.723c-0.144,0.195-0.378,0.358-0.703,0.488c-0.326,0.13-0.762,0.221-1.309,0.273
		c-0.547,0.052-1.211,0.078-1.992,0.078c-0.808,0-1.479-0.026-2.012-0.078c-0.534-0.053-0.964-0.144-1.289-0.273
		c-0.326-0.13-0.554-0.293-0.684-0.488c-0.131-0.195-0.195-0.436-0.195-0.723V47.305c0-0.26,0.078-0.494,0.234-0.703
		c0.156-0.208,0.423-0.384,0.801-0.527c0.377-0.143,0.879-0.254,1.504-0.332s1.419-0.117,2.383-0.117
		c0.963,0,1.758,0.039,2.383,0.117s1.126,0.189,1.504,0.332c0.377,0.144,0.645,0.319,0.801,0.527
		c0.156,0.209,0.234,0.443,0.234,0.703v19.258c0.885-0.885,1.771-1.641,2.656-2.266c0.885-0.625,1.771-1.139,2.656-1.543
		c0.885-0.403,1.797-0.696,2.734-0.879c0.938-0.182,1.927-0.273,2.969-0.273c2.578,0,4.766,0.515,6.563,1.543
		c1.797,1.029,3.262,2.416,4.395,4.16c1.133,1.745,1.959,3.783,2.48,6.113C256.013,75.749,256.273,78.203,256.273,80.781z
		 M246.078,81.484c0-1.484-0.111-2.916-0.332-4.297c-0.222-1.38-0.605-2.604-1.152-3.672c-0.547-1.067-1.257-1.92-2.129-2.559
		c-0.873-0.638-1.973-0.957-3.301-0.957c-0.651,0-1.289,0.092-1.914,0.273c-0.625,0.183-1.27,0.495-1.934,0.938
		c-0.664,0.443-1.348,1.016-2.051,1.719s-1.445,1.576-2.227,2.617v11.563c1.38,1.771,2.701,3.119,3.965,4.043
		c1.263,0.925,2.584,1.387,3.965,1.387c1.275,0,2.356-0.325,3.242-0.977c0.885-0.65,1.621-1.497,2.207-2.539
		c0.586-1.041,1.009-2.227,1.27-3.555C245.947,84.141,246.078,82.813,246.078,81.484z"/>
	<path fill="#3C66B0" d="M299.359,80.898c0,2.969-0.391,5.678-1.172,8.125c-0.781,2.448-1.967,4.558-3.555,6.328
		c-1.589,1.771-3.581,3.139-5.977,4.102c-2.396,0.963-5.195,1.445-8.398,1.445c-3.1,0-5.795-0.43-8.086-1.289
		c-2.292-0.859-4.193-2.109-5.703-3.75c-1.511-1.641-2.631-3.658-3.359-6.055c-0.729-2.396-1.094-5.13-1.094-8.203
		c0-2.969,0.396-5.684,1.191-8.145c0.794-2.461,1.985-4.57,3.574-6.328c1.588-1.758,3.574-3.118,5.957-4.082
		c2.383-0.963,5.176-1.445,8.379-1.445c3.125,0,5.833,0.424,8.125,1.27c2.291,0.847,4.186,2.09,5.684,3.73
		c1.497,1.641,2.61,3.659,3.34,6.055C298.994,75.053,299.359,77.8,299.359,80.898z M289.242,81.289c0-1.719-0.137-3.301-0.41-4.746
		s-0.736-2.701-1.387-3.77c-0.651-1.067-1.518-1.9-2.598-2.5c-1.081-0.599-2.441-0.898-4.082-0.898
		c-1.459,0-2.734,0.268-3.828,0.801c-1.094,0.534-1.992,1.315-2.695,2.344c-0.703,1.029-1.23,2.266-1.582,3.711
		s-0.527,3.093-0.527,4.941c0,1.719,0.143,3.301,0.43,4.746c0.286,1.445,0.748,2.702,1.387,3.77c0.638,1.068,1.504,1.895,2.598,2.48
		s2.447,0.879,4.063,0.879c1.484,0,2.773-0.267,3.867-0.801c1.094-0.533,1.992-1.309,2.695-2.324s1.224-2.246,1.563-3.691
		C289.072,84.785,289.242,83.139,289.242,81.289z"/>
	<path fill="#3C66B0" d="M340.414,98.672c0,0.261-0.078,0.488-0.234,0.684s-0.417,0.358-0.781,0.488
		c-0.365,0.131-0.866,0.228-1.504,0.293c-0.639,0.064-1.426,0.098-2.363,0.098c-0.964,0-1.765-0.033-2.402-0.098
		c-0.639-0.065-1.14-0.162-1.504-0.293c-0.365-0.13-0.625-0.293-0.781-0.488s-0.234-0.423-0.234-0.684V78.789
		c0-1.692-0.124-3.021-0.371-3.984c-0.248-0.963-0.605-1.79-1.074-2.48c-0.469-0.689-1.074-1.224-1.816-1.602
		c-0.742-0.377-1.608-0.566-2.598-0.566c-1.25,0-2.514,0.456-3.789,1.367c-1.276,0.912-2.604,2.24-3.984,3.984v23.164
		c0,0.261-0.078,0.488-0.234,0.684s-0.424,0.358-0.801,0.488c-0.378,0.131-0.879,0.228-1.504,0.293
		c-0.625,0.064-1.42,0.098-2.383,0.098c-0.964,0-1.758-0.033-2.383-0.098c-0.625-0.065-1.127-0.162-1.504-0.293
		c-0.378-0.13-0.645-0.293-0.801-0.488s-0.234-0.423-0.234-0.684V63.828c0-0.26,0.064-0.488,0.195-0.684
		c0.13-0.195,0.364-0.357,0.703-0.488c0.338-0.13,0.774-0.228,1.309-0.293c0.533-0.064,1.204-0.098,2.012-0.098
		c0.833,0,1.523,0.033,2.07,0.098c0.547,0.065,0.97,0.163,1.27,0.293c0.299,0.131,0.514,0.293,0.645,0.488
		c0.13,0.195,0.195,0.424,0.195,0.684v4.023c1.927-2.083,3.887-3.646,5.879-4.688c1.992-1.041,4.068-1.563,6.23-1.563
		c2.369,0,4.368,0.391,5.996,1.172c1.627,0.781,2.942,1.843,3.945,3.184c1.002,1.342,1.725,2.91,2.168,4.707
		c0.442,1.797,0.664,3.959,0.664,6.484V98.672z"/>
	<path fill="#3C66B0" d="M392.641,73.984c0,4.636-0.605,8.601-1.816,11.895c-1.211,3.295-2.949,5.983-5.215,8.066
		c-2.266,2.084-5.02,3.613-8.262,4.59S370.244,100,365.766,100h-12.07c-0.859,0-1.582-0.254-2.168-0.762s-0.879-1.334-0.879-2.48
		V52.695c0-1.146,0.293-1.973,0.879-2.48s1.309-0.762,2.168-0.762h12.969c4.505,0,8.326,0.527,11.465,1.582
		c3.138,1.055,5.781,2.617,7.93,4.688s3.782,4.629,4.902,7.676C392.08,66.445,392.641,69.975,392.641,73.984z M382.016,74.336
		c0-2.396-0.28-4.622-0.84-6.68c-0.561-2.057-1.459-3.841-2.695-5.352c-1.237-1.51-2.826-2.688-4.766-3.535
		c-1.94-0.846-4.486-1.27-7.637-1.27h-5.195v34.375h5.352c2.813,0,5.182-0.364,7.109-1.094c1.927-0.729,3.535-1.829,4.824-3.301
		c1.289-1.471,2.252-3.301,2.891-5.488C381.696,79.805,382.016,77.253,382.016,74.336z"/>
	<path fill="#3C66B0" d="M437.68,84.844c0,1.797-0.248,3.425-0.742,4.883c-0.495,1.459-1.179,2.748-2.051,3.867
		c-0.873,1.12-1.914,2.084-3.125,2.891c-1.211,0.808-2.546,1.472-4.004,1.992c-1.459,0.521-3.015,0.905-4.668,1.152
		c-1.654,0.248-3.496,0.371-5.527,0.371h-13.438c-0.859,0-1.582-0.254-2.168-0.762s-0.879-1.334-0.879-2.48V52.695
		c0-1.146,0.293-1.973,0.879-2.48s1.309-0.762,2.168-0.762h12.695c3.099,0,5.723,0.261,7.871,0.781
		c2.148,0.521,3.958,1.309,5.43,2.363c1.471,1.055,2.598,2.39,3.379,4.004c0.781,1.615,1.172,3.516,1.172,5.703
		c0,1.225-0.156,2.377-0.469,3.457c-0.313,1.081-0.769,2.064-1.367,2.949c-0.6,0.886-1.335,1.667-2.207,2.344
		c-0.873,0.678-1.869,1.225-2.988,1.641c1.432,0.261,2.754,0.717,3.965,1.367c1.211,0.651,2.266,1.491,3.164,2.52
		c0.898,1.029,1.607,2.233,2.129,3.613C437.419,81.576,437.68,83.125,437.68,84.844z M424.398,63.555
		c0-1.016-0.156-1.927-0.469-2.734c-0.313-0.807-0.781-1.478-1.406-2.012c-0.625-0.533-1.413-0.943-2.363-1.23
		c-0.951-0.286-2.221-0.43-3.809-0.43h-5.195v13.125h5.742c1.484,0,2.669-0.176,3.555-0.527c0.885-0.352,1.621-0.833,2.207-1.445
		c0.586-0.611,1.021-1.328,1.309-2.148C424.255,65.332,424.398,64.467,424.398,63.555z M427.016,85.195
		c0-1.172-0.195-2.22-0.586-3.145c-0.391-0.924-0.964-1.699-1.719-2.324c-0.756-0.625-1.719-1.106-2.891-1.445
		c-1.172-0.338-2.695-0.508-4.57-0.508h-6.094v14.375h7.422c1.432,0,2.637-0.149,3.613-0.449c0.977-0.299,1.822-0.742,2.539-1.328
		c0.716-0.586,1.275-1.314,1.68-2.188C426.813,87.312,427.016,86.315,427.016,85.195z"/>
</g>
<circle fill="#3C66B0" cx="94.5" cy="22.5" r="22.5"/>
<circle fill="#3C66B0" cx="22.5" cy="76.5" r="22.5"/>
<circle fill="#3C66B0" cx="94.5" cy="130.5" r="22.5"/>
<rect x="17.698" y="43.572" transform="matrix(0.7952 -0.6063 0.6063 0.7952 -16.6475 46.8557)" fill="#3C66B0" width="86.684" height="9"/>
<rect x="17.698" y="100.642" transform="matrix(0.7952 0.6063 -0.6063 0.7952 76.2519 -15.4786)" fill="#3C66B0" width="86.684" height="9"/>
<g>
</g>
<g>
</g>
<g>
</g>
<g>
</g>
<g>
</g>
<g>
</g>
</svg>
